HIERARCHY
ROOT mixamorig:Hips
{
	OFFSET -0.000008 104.274872 1.554316
	CHANNELS 6 Xposition Yposition Zposition Xrotation Yrotation Zrotation
	JOINT mixamorig:Spine
	{
		OFFSET -0.000005 10.181595 0.131519
		CHANNELS 6 Xposition Yposition Zposition Xrotation Yrotation Zrotation
		JOINT mixamorig:Spine1
		{
			OFFSET -0.000000 9.893959 -1.470707
			CHANNELS 6 Xposition Yposition Zposition Xrotation Yrotation Zrotation
			JOINT mixamorig:Spine2
			{
				OFFSET -0.000000 9.220757 -1.370641
				CHANNELS 6 Xposition Yposition Zposition Xrotation Yrotation Zrotation
				JOINT mixamorig:Neck
				{
					OFFSET 0.000001 16.740417 -2.049036
					CHANNELS 6 Xposition Yposition Zposition Xrotation Yrotation Zrotation
					JOINT mixamorig:Head
					{
						OFFSET 0.000000 9.617874 1.685006
						CHANNELS 6 Xposition Yposition Zposition Xrotation Yrotation Zrotation
						JOINT mixamorig:HeadTop_End
						{
							OFFSET 0.000002 22.037354 7.501101
							CHANNELS 6 Xposition Yposition Zposition Xrotation Yrotation Zrotation
							End Site
							{
								OFFSET 0.000168 2310.654297 -282.823242
							}
						}
					}
				}
				JOINT mixamorig:RightShoulder
				{
					OFFSET -4.569970 11.014908 -2.160885
					CHANNELS 6 Xposition Yposition Zposition Xrotation Yrotation Zrotation
					JOINT mixamorig:RightArm
					{
						OFFSET -10.592851 -0.524811 -2.232101
						CHANNELS 6 Xposition Yposition Zposition Xrotation Yrotation Zrotation
						JOINT mixamorig:RightForeArm
						{
							OFFSET -27.841511 0.000031 -0.000004
							CHANNELS 6 Xposition Yposition Zposition Xrotation Yrotation Zrotation
							JOINT mixamorig:RightHand
							{
								OFFSET -28.328831 -0.000015 0.000015
								CHANNELS 6 Xposition Yposition Zposition Xrotation Yrotation Zrotation
								JOINT mixamorig:RightHandThumb1
								{
									OFFSET -2.464806 -1.573990 2.681852
									CHANNELS 6 Xposition Yposition Zposition Xrotation Yrotation Zrotation
									JOINT mixamorig:RightHandThumb2
									{
										OFFSET -3.215179 -1.872803 1.924282
										CHANNELS 6 Xposition Yposition Zposition Xrotation Yrotation Zrotation
										JOINT mixamorig:RightHandThumb3
										{
											OFFSET -2.654831 -1.527969 1.512609
											CHANNELS 6 Xposition Yposition Zposition Xrotation Yrotation Zrotation
											JOINT mixamorig:RightHandThumb4
											{
												OFFSET -2.018814 -1.152008 1.108052
												CHANNELS 6 Xposition Yposition Zposition Xrotation Yrotation Zrotation
												End Site
												{
													OFFSET -188.809540 -114.533607 132.431396
												}
											}
										}
									}
								}
								JOINT mixamorig:RightHandIndex1
								{
									OFFSET -9.108284 -0.517868 2.259835
									CHANNELS 6 Xposition Yposition Zposition Xrotation Yrotation Zrotation
									JOINT mixamorig:RightHandIndex2
									{
										OFFSET -3.699989 0.000000 0.001215
										CHANNELS 6 Xposition Yposition Zposition Xrotation Yrotation Zrotation
										JOINT mixamorig:RightHandIndex3
										{
											OFFSET -2.850006 0.000031 -0.000522
											CHANNELS 6 Xposition Yposition Zposition Xrotation Yrotation Zrotation
											JOINT mixamorig:RightHandIndex4
											{
												OFFSET -2.772186 -0.000015 -0.000020
												CHANNELS 6 Xposition Yposition Zposition Xrotation Yrotation Zrotation
												End Site
												{
													OFFSET -277.218445 0.000000 -0.050231
												}
											}
										}
									}
								}
								JOINT mixamorig:RightHandMiddle1
								{
									OFFSET -9.532516 -0.000031 -0.000023
									CHANNELS 6 Xposition Yposition Zposition Xrotation Yrotation Zrotation
									JOINT mixamorig:RightHandMiddle2
									{
										OFFSET -3.700005 -0.000015 0.003713
										CHANNELS 6 Xposition Yposition Zposition Xrotation Yrotation Zrotation
										JOINT mixamorig:RightHandMiddle3
										{
											OFFSET -2.949974 0.000015 -0.002054
											CHANNELS 6 Xposition Yposition Zposition Xrotation Yrotation Zrotation
											JOINT mixamorig:RightHandMiddle4
											{
												OFFSET -2.946640 0.000000 -0.000156
												CHANNELS 6 Xposition Yposition Zposition Xrotation Yrotation Zrotation
												End Site
												{
													OFFSET -294.664337 0.000000 -0.113670
												}
											}
										}
									}
								}
								JOINT mixamorig:RightHandRing1
								{
									OFFSET -9.103600 -0.043076 -1.865134
									CHANNELS 6 Xposition Yposition Zposition Xrotation Yrotation Zrotation
									JOINT mixamorig:RightHandRing2
									{
										OFFSET -3.379288 0.000000 -0.001055
										CHANNELS 6 Xposition Yposition Zposition Xrotation Yrotation Zrotation
										JOINT mixamorig:RightHandRing3
										{
											OFFSET -2.889687 -0.000015 0.000379
											CHANNELS 6 Xposition Yposition Zposition Xrotation Yrotation Zrotation
											JOINT mixamorig:RightHandRing4
											{
												OFFSET -2.638809 -0.000015 0.000941
												CHANNELS 6 Xposition Yposition Zposition Xrotation Yrotation Zrotation
												End Site
												{
													OFFSET -263.880371 0.000000 0.516020
												}
											}
										}
									}
								}
								JOINT mixamorig:RightHandPinky1
								{
									OFFSET -8.076683 -0.486710 -3.806280
									CHANNELS 6 Xposition Yposition Zposition Xrotation Yrotation Zrotation
									JOINT mixamorig:RightHandPinky2
									{
										OFFSET -3.600014 -0.000015 -0.003747
										CHANNELS 6 Xposition Yposition Zposition Xrotation Yrotation Zrotation
										JOINT mixamorig:RightHandPinky3
										{
											OFFSET -2.099983 0.000000 -0.005739
											CHANNELS 6 Xposition Yposition Zposition Xrotation Yrotation Zrotation
											JOINT mixamorig:RightHandPinky4
											{
												OFFSET -2.115768 -0.000031 -0.003680
												CHANNELS 6 Xposition Yposition Zposition Xrotation Yrotation Zrotation
												End Site
												{
													OFFSET -211.577087 0.000000 -0.350686
												}
											}
										}
									}
								}
							}
						}
					}
				}
				JOINT mixamorig:LeftShoulder
				{
					OFFSET 4.570447 11.014725 -2.160855
					CHANNELS 6 Xposition Yposition Zposition Xrotation Yrotation Zrotation
					JOINT mixamorig:LeftArm
					{
						OFFSET 10.592371 -0.524597 -2.232119
						CHANNELS 6 Xposition Yposition Zposition Xrotation Yrotation Zrotation
						JOINT mixamorig:LeftForeArm
						{
							OFFSET 27.841532 -0.000031 0.000026
							CHANNELS 6 Xposition Yposition Zposition Xrotation Yrotation Zrotation
							JOINT mixamorig:LeftHand
							{
								OFFSET 28.328846 -0.000061 0.000022
								CHANNELS 6 Xposition Yposition Zposition Xrotation Yrotation Zrotation
								JOINT mixamorig:LeftHandThumb1
								{
									OFFSET 2.466141 -1.576172 2.681732
									CHANNELS 6 Xposition Yposition Zposition Xrotation Yrotation Zrotation
									JOINT mixamorig:LeftHandThumb2
									{
										OFFSET 3.217812 -1.872070 1.916482
										CHANNELS 6 Xposition Yposition Zposition Xrotation Yrotation Zrotation
										JOINT mixamorig:LeftHandThumb3
										{
											OFFSET 2.656029 -1.528778 1.514513
											CHANNELS 6 Xposition Yposition Zposition Xrotation Yrotation Zrotation
											JOINT mixamorig:LeftHandThumb4
											{
												OFFSET 2.020889 -1.154053 1.115139
												CHANNELS 6 Xposition Yposition Zposition Xrotation Yrotation Zrotation
												End Site
												{
													OFFSET 190.885437 -115.081749 130.048782
												}
											}
										}
									}
								}
								JOINT mixamorig:LeftHandIndex1
								{
									OFFSET 9.109314 -0.518021 2.259871
									CHANNELS 6 Xposition Yposition Zposition Xrotation Yrotation Zrotation
									JOINT mixamorig:LeftHandIndex2
									{
										OFFSET 3.699989 0.000000 -0.000322
										CHANNELS 6 Xposition Yposition Zposition Xrotation Yrotation Zrotation
										JOINT mixamorig:LeftHandIndex3
										{
											OFFSET 2.850006 0.000000 0.000352
											CHANNELS 6 Xposition Yposition Zposition Xrotation Yrotation Zrotation
											JOINT mixamorig:LeftHandIndex4
											{
												OFFSET 2.774864 -0.000031 -0.000027
												CHANNELS 6 Xposition Yposition Zposition Xrotation Yrotation Zrotation
												End Site
												{
													OFFSET 277.486267 0.000000 -0.009857
												}
											}
										}
									}
								}
								JOINT mixamorig:LeftHandMiddle1
								{
									OFFSET 9.533394 0.000061 0.000044
									CHANNELS 6 Xposition Yposition Zposition Xrotation Yrotation Zrotation
									JOINT mixamorig:LeftHandMiddle2
									{
										OFFSET 3.699989 -0.000015 -0.000231
										CHANNELS 6 Xposition Yposition Zposition Xrotation Yrotation Zrotation
										JOINT mixamorig:LeftHandMiddle3
										{
											OFFSET 2.949997 -0.000015 -0.000059
											CHANNELS 6 Xposition Yposition Zposition Xrotation Yrotation Zrotation
											JOINT mixamorig:LeftHandMiddle4
											{
												OFFSET 2.952896 0.000031 0.000063
												CHANNELS 6 Xposition Yposition Zposition Xrotation Yrotation Zrotation
												End Site
												{
													OFFSET 295.289337 0.000000 0.022810
												}
											}
										}
									}
								}
								JOINT mixamorig:LeftHandRing1
								{
									OFFSET 9.104523 -0.042999 -1.865074
									CHANNELS 6 Xposition Yposition Zposition Xrotation Yrotation Zrotation
									JOINT mixamorig:LeftHandRing2
									{
										OFFSET 3.150009 -0.000031 0.000043
										CHANNELS 6 Xposition Yposition Zposition Xrotation Yrotation Zrotation
										JOINT mixamorig:LeftHandRing3
										{
											OFFSET 2.949982 -0.000015 0.000040
											CHANNELS 6 Xposition Yposition Zposition Xrotation Yrotation Zrotation
											JOINT mixamorig:LeftHandRing4
											{
												OFFSET 2.644348 0.000000 0.000057
												CHANNELS 6 Xposition Yposition Zposition Xrotation Yrotation Zrotation
												End Site
												{
													OFFSET 264.434631 0.000000 0.012105
												}
											}
										}
									}
								}
								JOINT mixamorig:LeftHandPinky1
								{
									OFFSET 8.077789 -0.486847 -3.806259
									CHANNELS 6 Xposition Yposition Zposition Xrotation Yrotation Zrotation
									JOINT mixamorig:LeftHandPinky2
									{
										OFFSET 3.599953 0.000031 0.014727
										CHANNELS 6 Xposition Yposition Zposition Xrotation Yrotation Zrotation
										JOINT mixamorig:LeftHandPinky3
										{
											OFFSET 2.100021 0.000015 0.007705
											CHANNELS 6 Xposition Yposition Zposition Xrotation Yrotation Zrotation
											JOINT mixamorig:LeftHandPinky4
											{
												OFFSET 2.125504 0.000031 0.007517
												CHANNELS 6 Xposition Yposition Zposition Xrotation Yrotation Zrotation
												End Site
												{
													OFFSET 212.550781 0.000000 0.625752
												}
											}
										}
									}
								}
							}
						}
					}
				}
			}
		}
	}
	JOINT mixamorig:RightUpLeg
	{
		OFFSET -8.207787 -6.751648 -1.599560
		CHANNELS 6 Xposition Yposition Zposition Xrotation Yrotation Zrotation
		JOINT mixamorig:RightLeg
		{
			OFFSET -0.000002 -44.370117 0.345942
			CHANNELS 6 Xposition Yposition Zposition Xrotation Yrotation Zrotation
			JOINT mixamorig:RightFoot
			{
				OFFSET 0.000003 -44.423679 -3.043532
				CHANNELS 6 Xposition Yposition Zposition Xrotation Yrotation Zrotation
				JOINT mixamorig:RightToeBase
				{
					OFFSET -0.000002 -8.728671 10.710558
					CHANNELS 6 Xposition Yposition Zposition Xrotation Yrotation Zrotation
					JOINT mixamorig:RightToe_End
					{
						OFFSET -0.000001 -0.000679 9.278119
						CHANNELS 6 Xposition Yposition Zposition Xrotation Yrotation Zrotation
						End Site
						{
							OFFSET 0.000000 -0.067690 927.812134
						}
					}
				}
			}
		}
	}
	JOINT mixamorig:LeftUpLeg
	{
		OFFSET 8.207793 -6.751686 -1.599556
		CHANNELS 6 Xposition Yposition Zposition Xrotation Yrotation Zrotation
		JOINT mixamorig:LeftLeg
		{
			OFFSET -0.000004 -44.370014 0.346954
			CHANNELS 6 Xposition Yposition Zposition Xrotation Yrotation Zrotation
			JOINT mixamorig:LeftFoot
			{
				OFFSET -0.000001 -44.423672 -3.044401
				CHANNELS 6 Xposition Yposition Zposition Xrotation Yrotation Zrotation
				JOINT mixamorig:LeftToeBase
				{
					OFFSET -0.000002 -8.728669 10.710558
					CHANNELS 6 Xposition Yposition Zposition Xrotation Yrotation Zrotation
					JOINT mixamorig:LeftToe_End
					{
						OFFSET -0.000003 -0.000679 9.278133
						CHANNELS 6 Xposition Yposition Zposition Xrotation Yrotation Zrotation
						End Site
						{
							OFFSET 0.000000 -0.068021 927.813477
						}
					}
				}
			}
		}
	}
}
MOTION
Frames: 3
Frame Time: 0.033333
0.000006 104.270477 1.554256 0.000010 0.000003 -0.000113 -0.000005 10.181587 0.131522 0.000001 -0.000003 0.000084 -0.000000 9.893967 -1.470711 0.000001 0.000000 -0.000000 -0.000000 9.220802 -1.370642 0.000000 -0.000000 -0.000000 0.000001 16.740433 -2.049030 0.000000 -0.000000 -0.000000 0.000000 9.617859 1.685014 0.000000 0.000000 0.000000 0.000002 22.037384 7.501101 0.000000 -0.000000 0.000000 -4.569968 11.014880 -2.160881 0.000008 0.000001 -0.000038 -10.592866 -0.524675 -2.232027 72.017166 6.768650 -4.921971 -27.841551 0.000031 0.000530 120.419773 59.333703 -89.713818 -28.328819 0.000023 0.000031 -0.000320 -0.000045 0.000006 -2.464434 -1.573834 2.682387 -39.375231 -161.723880 10.948835 -3.215276 -1.872565 1.924659 157.614989 32.257214 5.241830 -2.654947 -1.527898 1.513106 151.663053 25.393812 -41.459214 -2.018826 -1.152017 1.108059 0.000001 -0.000001 0.000002 -9.108387 -0.517556 2.260106 96.429150 16.991327 -19.030995 -3.700073 0.000313 0.001493 92.877459 15.022943 -15.762292 -2.850086 0.000381 -0.000275 91.449608 11.699547 -11.996241 -2.772172 -0.000002 -0.000020 -0.000000 0.000001 0.000000 -9.532582 0.000269 0.000241 94.333737 15.188847 -16.519793 -3.700078 0.000345 0.003969 93.698010 12.685893 -13.423162 -2.950077 0.000335 -0.001820 94.056315 11.862243 -12.718687 -2.946637 -0.000012 -0.000145 0.000002 0.000002 -0.000001 -9.103682 -0.042743 -1.864862 93.273234 16.445753 -17.351906 -3.379342 0.000321 -0.000800 95.751281 10.159394 -11.246765 -2.889745 0.000350 0.000661 98.493828 7.286544 -8.504669 -2.638804 -0.000005 0.000949 -0.000001 -0.000001 0.000001 -8.076752 -0.486381 -3.806023 88.481986 16.398389 -15.829324 -3.600052 0.000272 -0.003504 92.111733 7.817167 -7.744610 -2.100003 0.000325 -0.005493 92.595795 4.386979 -4.364811 -2.115767 -0.000053 -0.003677 0.000007 0.000005 -0.000007 4.570446 11.014691 -2.160851 -0.000018 0.000010 -0.000021 10.592365 -0.524518 -2.232294 70.518589 2.577678 -1.822427 27.841827 0.000136 -0.000226 100.812178 -60.076513 69.916835 28.328852 -0.000027 0.000028 0.000019 -0.000089 0.000001 2.466066 -1.576185 2.681906 -26.262260 153.733857 -33.748398 3.217747 -1.871676 1.916376 156.458966 -33.456445 -12.879123 2.656103 -1.528626 1.514468 143.227892 -27.043934 44.560977 2.020883 -1.154070 1.115148 -0.000004 0.000002 0.000002 9.109380 -0.517848 2.259746 87.830878 -15.345205 14.769562 3.700044 0.000169 -0.000478 85.517848 -14.607715 13.533987 2.850056 0.000178 0.000196 83.674018 -12.785938 11.455067 2.774881 -0.000048 -0.000024 -0.000000 -0.000001 -0.000001 9.533464 0.000225 -0.000089 88.682917 -14.537894 14.202366 3.700047 0.000181 -0.000381 89.594351 -14.028473 13.927767 2.950061 0.000179 -0.000201 90.556212 -16.494077 16.655812 2.952874 -0.000035 0.000071 -0.000001 0.000000 -0.000003 9.104577 -0.042840 -1.865229 86.172754 -13.815434 12.931699 3.150050 0.000189 -0.000095 92.718261 -12.641745 13.252765 2.950030 0.000207 -0.000065 95.158496 -13.838441 15.131495 2.644317 0.000024 0.000057 -0.000002 0.000002 -0.000000 8.077832 -0.486740 -3.806403 76.195412 -15.494492 12.637566 3.600003 0.000185 0.014567 78.464059 -13.390436 11.369323 2.100048 0.000183 0.007560 82.251897 -12.695466 11.521587 2.125506 0.000002 0.007518 -0.000001 0.000002 -0.000001 -8.207786 -6.751667 -1.599560 -0.077001 -0.000003 0.000080 -0.000002 -44.370110 0.345938 0.153719 -0.000000 -0.000000 0.000000 -44.423679 -3.043532 -0.076700 0.000000 -0.000002 -0.000006 -8.728667 10.710559 -0.000009 -0.000000 -0.000000 -0.000001 -0.000679 9.278123 0.000000 -0.000000 -0.000000 8.207792 -6.751710 -1.599556 -0.074518 -0.000003 0.000081 -0.000002 -44.370014 0.346960 0.148822 0.000002 0.000000 -0.000001 -44.423664 -3.044403 -0.074314 0.000000 -0.000002 -0.000004 -8.728671 10.710558 0.000007 -0.000000 -0.000000 0.000000 -0.000680 9.278137 -0.000000 0.000000 -0.000001 
0.000006 104.270477 1.554256 0.000010 0.000003 -0.000113 -0.000005 10.181587 0.131522 0.000001 -0.000003 0.000084 -0.000000 9.893967 -1.470711 0.000001 0.000000 -0.000000 -0.000000 9.220802 -1.370642 0.000000 -0.000000 -0.000000 0.000001 16.740433 -2.049030 0.000000 -0.000000 -0.000000 0.000000 9.617859 1.685014 0.000000 0.000000 0.000000 0.000002 22.037384 7.501101 0.000000 -0.000000 0.000000 -4.569968 11.014880 -2.160881 0.000008 0.000001 -0.000038 -10.592860 -0.524664 -2.232037 71.463873 3.698424 -2.661168 -27.841537 0.000026 0.000546 120.762348 58.599014 -89.254385 -28.328829 0.000020 0.000018 -0.000319 -0.000045 0.000007 -2.464421 -1.573749 2.682328 -48.101057 -166.642286 -10.312325 -3.215277 -1.872599 1.924641 154.749110 30.727747 -1.661436 -2.654966 -1.527877 1.513083 146.101503 27.211832 -35.880865 -2.018823 -1.151989 1.108053 -0.000006 -0.000006 0.000001 -9.108380 -0.517541 2.260113 96.487555 16.618805 -18.634972 -3.700084 0.000304 0.001501 94.584938 14.980049 -16.187538 -2.850081 0.000350 -0.000269 93.340839 11.759444 -12.459530 -2.772168 -0.000016 -0.000022 -0.000002 -0.000001 0.000002 -9.532599 0.000268 0.000242 93.080998 16.112222 -17.140182 -3.700078 0.000318 0.003974 93.843657 13.121150 -13.921263 -2.950066 0.000343 -0.001787 95.933197 11.671036 -12.928649 -2.946635 0.000013 -0.000158 -0.000003 -0.000001 0.000001 -9.103700 -0.042750 -1.864859 92.879037 16.567239 -17.361962 -3.379320 0.000327 -0.000801 94.573880 9.580664 -10.392299 -2.889751 0.000350 0.000657 99.937668 6.725732 -8.056794 -2.638818 0.000000 0.000928 0.000001 -0.000000 -0.000002 -8.076757 -0.486378 -3.806031 87.191845 17.241453 -16.284105 -3.600027 0.000289 -0.003524 91.350843 7.330939 -7.147319 -2.099991 0.000335 -0.005481 94.897057 3.685208 -3.782051 -2.115767 -0.000054 -0.003683 0.000002 -0.000001 -0.000004 4.570446 11.014691 -2.160851 -0.000018 0.000010 -0.000021 10.592353 -0.524551 -2.232254 70.340833 16.023083 -11.327723 27.841831 0.000139 -0.000220 101.538904 -61.491414 72.150410 28.328833 -0.000028 0.000029 0.000020 -0.000088 -0.000000 2.466186 -1.576111 2.681865 -6.445610 160.933108 -74.310710 3.217861 -1.871792 1.916416 164.866382 -24.233542 31.054428 2.656110 -1.528641 1.514471 142.958701 -26.484475 53.721992 2.020876 -1.154070 1.115136 0.000001 0.000001 -0.000001 9.109379 -0.517855 2.259736 88.255695 -18.481887 17.924469 3.700051 0.000174 -0.000463 86.713643 -13.136423 12.425655 2.850023 0.000200 0.000213 85.178913 -9.961323 9.158930 2.774884 -0.000031 -0.000026 0.000001 0.000001 0.000001 9.533454 0.000214 -0.000089 87.319597 -17.080640 16.301901 3.700046 0.000187 -0.000387 90.383313 -11.157172 11.228924 2.950047 0.000193 -0.000197 91.268321 -10.475710 10.711796 2.952881 -0.000030 0.000068 0.000001 0.000001 0.000000 9.104600 -0.042846 -1.865228 87.481159 -16.592437 15.889769 3.150041 0.000208 -0.000096 93.050686 -12.266831 12.934374 2.950022 0.000203 -0.000089 94.276241 -10.185080 10.972288 2.644330 0.000032 0.000048 0.000000 0.000001 -0.000002 8.077853 -0.486715 -3.806402 81.187542 -18.458969 16.369838 3.599998 0.000168 0.014561 79.883119 -15.946267 13.820178 2.100038 0.000182 0.007545 80.352681 -11.165291 9.840875 2.125512 -0.000001 0.007514 0.000001 -0.000001 -0.000000 -8.207786 -6.751667 -1.599560 -0.077001 -0.000003 0.000080 -0.000002 -44.370110 0.345938 0.153719 -0.000000 -0.000000 0.000000 -44.423679 -3.043532 -0.076700 0.000000 -0.000002 -0.000006 -8.728667 10.710559 -0.000009 -0.000000 -0.000000 -0.000001 -0.000679 9.278123 0.000000 -0.000000 -0.000000 8.207792 -6.751710 -1.599556 -0.074518 -0.000003 0.000081 -0.000002 -44.370014 0.346960 0.148822 0.000002 0.000000 -0.000001 -44.423664 -3.044403 -0.074314 0.000000 -0.000002 -0.000004 -8.728671 10.710558 0.000007 -0.000000 -0.000000 0.000000 -0.000680 9.278137 -0.000000 0.000000 -0.000001 
0.000006 104.270477 1.554256 0.000010 0.000003 -0.000113 -0.000005 10.181587 0.131522 0.000001 -0.000003 0.000084 -0.000000 9.893967 -1.470711 0.000001 0.000000 -0.000000 -0.000000 9.220802 -1.370642 0.000000 -0.000000 -0.000000 0.000001 16.740433 -2.049030 0.000000 -0.000000 -0.000000 0.000000 9.617859 1.685014 0.000000 0.000000 0.000000 0.000002 22.037384 7.501101 0.000000 -0.000000 0.000000 -4.569968 11.014880 -2.160881 0.000008 0.000001 -0.000038 -10.592870 -0.524681 -2.232030 70.916809 8.121338 -5.788790 -27.841528 0.000022 0.000548 122.429392 62.411202 -95.583921 -28.328814 0.000022 0.000032 -0.000322 -0.000045 0.000007 -2.464422 -1.573777 2.682343 -47.516755 -165.480976 -8.808155 -3.215276 -1.872607 1.924678 155.276045 30.160445 -5.314584 -2.654950 -1.527864 1.513077 147.915041 27.159817 -33.038270 -2.018834 -1.152018 1.108052 -0.000000 0.000000 -0.000001 -9.108382 -0.517560 2.260116 96.959672 16.000871 -18.093105 -3.700083 0.000324 0.001485 95.243737 13.724946 -15.001997 -2.850091 0.000348 -0.000263 93.996496 10.298260 -11.037429 -2.772158 -0.000001 -0.000023 -0.000000 0.000002 -0.000002 -9.532592 0.000272 0.000245 93.935503 14.452793 -15.619034 -3.700066 0.000337 0.003975 93.719027 11.828866 -12.515915 -2.950054 0.000350 -0.001826 95.215603 10.472282 -11.457706 -2.946615 0.000015 -0.000152 -0.000005 -0.000001 0.000002 -9.103693 -0.042757 -1.864862 93.553846 15.045148 -15.949950 -3.379329 0.000328 -0.000792 95.088924 9.683887 -10.598638 -2.889768 0.000374 0.000668 99.294476 6.843410 -8.104271 -2.638817 0.000000 0.000940 -0.000003 0.000001 0.000000 -8.076736 -0.486386 -3.806017 88.125484 15.407505 -14.773578 -3.600029 0.000278 -0.003500 91.899171 7.254981 -7.137761 -2.100006 0.000331 -0.005471 95.388496 3.798273 -3.938535 -2.115762 -0.000056 -0.003682 -0.000000 0.000001 -0.000003 4.570446 11.014691 -2.160851 -0.000018 0.000010 -0.000021 10.592357 -0.524562 -2.232256 69.748498 17.922401 -12.543340 27.841835 0.000116 -0.000207 101.897454 -62.871830 73.993844 28.328840 -0.000028 0.000021 0.000020 -0.000090 -0.000000 2.466263 -1.576080 2.681842 4.465931 166.409513 -95.080154 3.217846 -1.871874 1.916417 164.866150 -21.389053 41.492214 2.656115 -1.528656 1.514486 141.980413 -26.712115 55.405357 2.020888 -1.154065 1.115144 0.000002 0.000003 0.000001 9.109389 -0.517846 2.259747 90.217722 -19.839712 19.900892 3.700037 0.000164 -0.000470 88.178712 -13.274783 12.879351 2.850040 0.000190 0.000197 85.978633 -9.706646 9.049879 2.774885 -0.000016 -0.000026 -0.000002 -0.000006 0.000001 9.533476 0.000212 -0.000072 88.515850 -18.473153 17.999734 3.700049 0.000185 -0.000396 90.781847 -11.006840 11.154453 2.950048 0.000201 -0.000211 91.015583 -9.965954 10.146167 2.952876 -0.000016 0.000068 0.000001 0.000001 -0.000001 9.104599 -0.042847 -1.865223 88.530262 -17.865164 17.421627 3.150045 0.000218 -0.000102 93.556216 -12.844497 13.661935 2.950014 0.000187 -0.000080 94.021618 -10.176284 10.914390 2.644322 0.000031 0.000052 0.000001 -0.000002 -0.000002 8.077854 -0.486717 -3.806376 82.598734 -19.451026 17.657770 3.600001 0.000179 0.014571 80.421065 -16.943104 14.803286 2.100052 0.000182 0.007550 79.952528 -11.716312 10.237823 2.125511 -0.000017 0.007515 -0.000000 0.000000 0.000000 -8.207786 -6.751667 -1.599560 -0.077001 -0.000003 0.000080 -0.000002 -44.370110 0.345938 0.153719 -0.000000 -0.000000 0.000000 -44.423679 -3.043532 -0.076700 0.000000 -0.000002 -0.000006 -8.728667 10.710559 -0.000009 -0.000000 -0.000000 -0.000001 -0.000679 9.278123 0.000000 -0.000000 -0.000000 8.207792 -6.751710 -1.599556 -0.074518 -0.000003 0.000081 -0.000002 -44.370014 0.346960 0.148822 0.000002 0.000000 -0.000001 -44.423664 -3.044403 -0.074314 0.000000 -0.000002 -0.000004 -8.728671 10.710558 0.000007 -0.000000 -0.000000 0.000000 -0.000680 9.278137 -0.000000 0.000000 -0.000001 
